HIERARCHY
ROOT Hips
{
	OFFSET 0.00 0.00 0.00
	CHANNELS 6 Xposition Yposition Zposition Xrotation Yrotation Zrotation
	JOINT RightUpLeg
	{
		OFFSET -3.76699 0.00000 0.00000
		CHANNELS 3 Xrotation Yrotation Zrotation
		JOINT RightLeg
		{
			OFFSET 0.00000 -18.01768 0.00000
			CHANNELS 3 Xrotation Yrotation Zrotation
			JOINT RightFoot
			{
				OFFSET 0.00000 -16.88108 0.00000
				CHANNELS 3 Xrotation Yrotation Zrotation
				JOINT RightToeBase
				{
					OFFSET 0.00000 -1.49359 5.57418
					CHANNELS 3 Xrotation Yrotation Zrotation
					End Site
					{
						OFFSET 0.00000 0.00000 2.95275
					}
				}
			}
		}
	}
	JOINT LeftUpLeg
	{
		OFFSET 3.76699 0.00000 0.00000
		CHANNELS 3 Xrotation Yrotation Zrotation
		JOINT LeftLeg
		{
			OFFSET 0.00000 -18.01768 0.00000
			CHANNELS 3 Xrotation Yrotation Zrotation
			JOINT LeftFoot
			{
				OFFSET 0.00000 -16.88108 0.00000
				CHANNELS 3 Xrotation Yrotation Zrotation
				JOINT LeftToeBase
				{
					OFFSET 0.00000 -1.49359 5.57418
					CHANNELS 3 Xrotation Yrotation Zrotation
					End Site
					{
						OFFSET 0.00000 0.00000 2.95275
					}
				}
			}
		}
	}
	JOINT Spine
	{
		OFFSET 0.00000 7.77970 0.00000
		CHANNELS 3 Xrotation Yrotation Zrotation
		JOINT RightShoulder
		{
			OFFSET 0.00000 10.94176 0.00000
			CHANNELS 3 Xrotation Yrotation Zrotation
			JOINT RightArm
			{
				OFFSET -7.70894 0.00000 0.00000
				CHANNELS 3 Xrotation Yrotation Zrotation
				JOINT RightForeArm
				{
					OFFSET -11.52135 0.00000 0.00000
					CHANNELS 3 Yrotation Zrotation Xrotation
					JOINT RightHand
					{
						OFFSET -10.17590 0.00000 0.00000
						CHANNELS 3 Xrotation Yrotation Zrotation
						End Site
						{
							OFFSET -3.93700 0.00000 0.00000
						}
						JOINT RightHandThumb1
						{
							OFFSET 0.00000 0.00000 0.00000
							CHANNELS 3 Xrotation Zrotation Yrotation
							End Site
							{
								OFFSET 0.00000 0.00000 3.93700
							}
						}
					}
				}
			}
		}
		JOINT LeftShoulder
		{
			OFFSET 0.00000 10.94176 0.00000
			CHANNELS 3 Xrotation Yrotation Zrotation
			JOINT LeftArm
			{
				OFFSET 7.70894 0.00000 0.00000
				CHANNELS 3 Xrotation Yrotation Zrotation
				JOINT LeftForeArm
				{
					OFFSET 11.52135 0.00000 0.00000
					CHANNELS 3 Yrotation Zrotation Xrotation
					JOINT LeftHand
					{
						OFFSET 10.17590 0.00000 0.00000
						CHANNELS 3 Xrotation Yrotation Zrotation
						End Site
						{
							OFFSET 3.93700 0.00000 0.00000
						}
						JOINT LeftHandThumb1
						{
							OFFSET 0.00000 0.00000 0.00000
							CHANNELS 3 Xrotation Zrotation Yrotation
							End Site
							{
								OFFSET 0.00000 0.00000 3.93700
							}
						}
					}
				}
			}
		}
		JOINT Head
		{
			OFFSET 0.00000 16.64604 0.00000
			CHANNELS 3 Xrotation Yrotation Zrotation
			End Site
			{
				OFFSET 0.00000 4.52755 0.00000
			}
		}
	}
}
MOTION
Frames: 11
Frame Time: 0.008333
 26.5601 18.0351 -0.4267 11.5859 24.6916 -23.7970 10.5851 -14.2728 -34.1157 0.9966 -0.0000 -0.0000 -4.3450 -32.7315 29.2641 17.8946 -0.0000 0.0000 -101.2974 -12.7807 26.2218 133.6236 0.0000 0.0000 -27.2385 16.2853 -19.0595 -16.4936 0.0000 0.0000 20.6541 -25.1378 -47.9456 -13.2489 -7.0803 -45.0037 -63.8034 42.8527 -8.0092 15.0683 0.0000 2.1658 10.4867 10.6429 -45.0639 32.8623 0.0000 -24.3270 37.5630 25.0403 10.7957 -89.4033 36.5494 -45.8617 -7.7148 0.0000 -11.1922 -27.5413 -3.7528 97.1539 33.1476 -0.0000 26.2537 15.7007 -0.7112 -49.7488
 26.5593 18.0323 -0.4240 11.5596 24.7039 -23.8170 10.6305 -14.2617 -34.0804 0.9970 0.0000 0.0000 -4.3736 -32.7392 29.2139 17.9225 0.0000 0.0000 -101.2873 -12.8250 26.2477 133.6454 -0.0000 -0.0000 -27.2267 16.2374 -19.0750 -16.4892 0.0000 0.0000 20.7406 -25.0911 -47.8823 -13.2397 -7.0864 -44.9886 -63.8538 42.9197 -8.0079 15.0315 0.0000 1.9938 10.5524 10.7351 -45.0026 32.8623 0.0000 -24.3270 37.6117 25.0397 10.7405 -89.4290 36.4991 -45.9364 -7.7734 0.0000 -11.1828 -27.5788 -3.7788 97.1915 33.1476 -0.0000 26.2537 15.5838 -0.7649 -49.7607
 26.5598 18.0284 -0.4225 11.5452 24.7244 -23.8251 10.6553 -14.2647 -34.0676 1.0137 -0.0000 0.0000 -4.3924 -32.7451 29.2178 17.9182 0.0000 0.0000 -101.2902 -12.8354 26.2604 133.6632 -0.0000 -0.0000 -27.2287 16.2079 -19.0756 -16.4634 0.0000 -0.0000 20.8076 -25.0681 -47.8385 -13.2593 -7.0843 -44.9882 -63.8707 42.9756 -7.9676 15.0065 0.0000 2.0820 10.5281 10.6633 -45.1250 32.8623 0.0000 -24.3270 37.6453 25.0419 10.6931 -89.4532 36.4973 -45.9989 -7.8817 0.0000 -11.1317 -27.6260 -3.8221 97.2585 33.1476 -0.0000 26.2537 15.4547 -0.7955 -49.7795
 26.5598 18.0242 -0.4201 11.5147 24.7484 -23.8472 10.7117 -14.2542 -34.0278 1.0213 -0.0000 0.0000 -4.4198 -32.7607 29.1791 17.9262 0.0000 0.0000 -101.2797 -12.8780 26.2658 133.6896 -0.0000 -0.0000 -27.2177 16.1674 -19.0865 -16.4771 0.0000 0.0000 20.9087 -25.0505 -47.7639 -13.2599 -7.1217 -44.9684 -63.8986 43.0544 -7.9737 14.9753 0.0000 2.0924 10.5402 10.6437 -45.2109 32.8623 0.0000 -24.3270 37.6419 25.0469 10.6470 -89.4613 36.5035 -46.0681 -7.9811 0.0000 -11.0985 -27.5844 -3.8368 97.2987 33.1476 -0.0000 26.2537 15.2322 -0.8908 -49.8561
 26.5616 18.0202 -0.4195 11.5018 24.7569 -23.8483 10.7284 -14.2438 -34.0249 1.0382 0.0000 -0.0000 -4.4405 -32.7688 29.1578 17.9231 -0.0000 0.0000 -101.2839 -12.8751 26.2812 133.7093 0.0000 -0.0000 -27.2245 16.1530 -19.0641 -16.4641 0.0000 -0.0000 20.9565 -25.0361 -47.7350 -13.2465 -7.1808 -44.9673 -64.0345 43.1174 -7.8873 14.9872 0.0000 2.0230 10.5148 10.5979 -45.2622 32.8623 0.0000 -24.3270 37.6421 25.0514 10.6116 -89.4684 36.5477 -46.1162 -8.1152 0.0000 -11.0454 -27.5848 -3.8639 97.3495 33.1476 -0.0000 26.2537 15.0363 -0.9853 -49.9188
 26.5621 18.0143 -0.4178 11.4817 24.7747 -23.8642 10.7599 -14.2376 -34.0022 1.0606 -0.0000 0.0000 -4.4914 -32.7790 29.0897 17.9419 0.0000 0.0000 -101.2873 -12.9084 26.2876 133.7372 0.0000 -0.0000 -27.2066 16.1171 -19.0766 -16.4992 0.0000 0.0000 21.0527 -25.0054 -47.6729 -13.2679 -7.1419 -44.9500 -63.9284 43.1506 -7.9855 15.0147 0.0000 1.9864 10.4731 10.5556 -45.2589 32.8623 0.0000 -24.3270 37.6416 25.0605 10.5818 -89.4884 36.5703 -46.1962 -8.2091 0.0000 -10.9997 -27.5657 -3.8968 97.4172 33.1476 -0.0000 26.2537 14.8310 -1.0931 -49.9527
 26.5640 18.0089 -0.4174 11.4692 24.7833 -23.8674 10.8058 -14.1855 -33.9907 1.0845 -0.0000 -0.0000 -4.5339 -32.8343 29.0458 17.9322 0.0000 0.0000 -101.2980 -12.9121 26.3002 133.7620 -0.0000 -0.0000 -27.2021 16.0956 -19.0808 -16.4986 0.0000 -0.0000 21.1241 -24.9888 -47.6439 -13.2882 -7.1208 -44.9418 -63.9596 43.1441 -7.9767 15.0968 0.0000 2.0237 10.4548 10.5570 -45.2042 32.8623 0.0000 -24.3270 37.6316 25.0885 10.5645 -89.5204 36.6510 -46.2682 -8.3468 0.0000 -10.8832 -27.5619 -3.9247 97.4708 33.1476 -0.0000 26.2537 14.5930 -1.2504 -49.9289
 26.5677 18.0022 -0.4168 11.4467 24.8100 -23.8703 10.8527 -14.1596 -33.9786 1.1187 0.0000 -0.0000 -4.5760 -32.8770 28.9911 17.9326 -0.0000 -0.0000 -101.2969 -12.9244 26.2900 133.7949 -0.0000 -0.0000 -27.1943 16.0716 -19.0894 -16.5485 0.0000 -0.0000 21.2185 -24.9950 -47.5844 -13.3161 -7.1553 -44.9783 -64.0991 43.1272 -7.8814 15.2128 0.0000 2.0486 10.4348 10.5860 -45.0701 32.8623 0.0000 -24.3270 37.6295 25.1059 10.5214 -89.5014 36.6640 -46.3608 -8.4571 0.0000 -10.8222 -27.6391 -3.9649 97.5221 33.1476 -0.0000 26.2537 14.3717 -1.3250 -49.9742
 26.5707 17.9959 -0.4155 11.4350 24.8319 -23.8883 10.8884 -14.1369 -33.9544 1.1508 0.0000 0.0000 -4.6295 -32.9127 28.8904 17.9472 -0.0000 -0.0000 -101.3043 -12.9482 26.2806 133.8232 0.0000 0.0000 -27.1954 16.0486 -19.1092 -16.4857 -0.0000 0.0000 21.3028 -24.9887 -47.5273 -13.3221 -7.1764 -44.9708 -64.2224 43.1572 -7.8027 15.2759 0.0000 2.1039 10.5168 10.6070 -45.2434 32.8623 0.0000 -24.3270 37.6595 25.1397 10.4907 -89.5274 36.7493 -46.4559 -8.6104 0.0000 -10.7403 -27.6442 -3.9792 97.5471 33.1476 -0.0000 26.2537 14.1597 -1.4645 -50.0340
 26.5745 17.9874 -0.4172 11.4342 24.8657 -23.9038 10.9333 -14.1063 -33.9374 1.1842 -0.0000 0.0000 -4.6787 -32.9725 28.8189 17.9457 0.0000 0.0000 -101.3337 -12.9619 26.2405 133.8544 0.0000 -0.0000 -27.1772 16.0283 -19.1231 -16.4840 -0.0000 -0.0000 21.3979 -24.9977 -47.4405 -13.3271 -7.2086 -44.9805 -64.2650 43.2228 -7.7993 15.2949 0.0000 2.1604 10.5169 10.5398 -45.4237 32.8623 0.0000 -24.3270 37.6787 25.1281 10.4409 -89.5358 36.7855 -46.5264 -8.7451 0.0000 -10.7163 -27.6622 -4.0078 97.5950 33.1476 -0.0000 26.2537 14.0687 -1.3897 -50.0010
 26.5791 17.9793 -0.4193 11.4358 24.8817 -23.9063 10.9759 -14.0365 -33.9369 1.2264 0.0000 -0.0000 -4.7111 -33.0727 28.7801 18.0196 -0.0000 -0.0000 -101.3594 -12.9607 26.2147 133.8874 0.0000 0.0000 -27.1754 16.0279 -19.1221 -16.5007 0.0000 0.0000 21.4659 -24.9963 -47.3971 -13.3383 -7.1908 -44.9652 -64.1916 43.2604 -7.8834 15.3483 0.0000 2.0434 10.5269 10.5742 -45.3592 32.8623 0.0000 -24.3270 37.7048 25.1368 10.4163 -89.5514 36.8711 -46.6053 -8.8997 0.0000 -10.6060 -27.7026 -4.0475 97.6561 33.1476 -0.0000 26.2537 13.9330 -1.4198 -49.9856
